# xmcd
# 
# Track frame offsets:
#     150
#     25875
#     45458
#     58606
#     72406
#     88929
#     111122
#     127232
#     143207
#     160315
#     173050
#     188710
#     210738
#     228746
# 
# Disc length: 3365
# 
# Revision: 0
# Processed by: cddbd v1.5.2PL0 Copyright (c) Steve Scherf et al.
# Submitted via: fre:ac v1.0.27
# 
DISCID=ce0d230e
DTITLE=Norah Jones - Live In New Orleans
DYEAR=2002
DGENRE=Jazz
TTITLE0=Cold, Cold Heart
TTITLE1=Nightingale
TTITLE2=One Flight Down
TTITLE3=Seven Years
TTITLE4=Feelin' The Same Way
TTITLE5=Comes Love
TTITLE6=Something Is Calling You
TTITLE7=Come Away With Me
TTITLE8=What Am I To You?
TTITLE9=Painter Song
TTITLE10=Lonestar
TTITLE11=I've Got To See You Again
TTITLE12=Bessie Smith
TTITLE13=Don't Know Why
EXTD=YEAR: 2002
EXTT0=
EXTT1=
EXTT2=
EXTT3=
EXTT4=
EXTT5=
EXTT6=
EXTT7=
EXTT8=
EXTT9=
EXTT10=
EXTT11=
EXTT12=
EXTT13=
PLAYORDER=
